<svg width="87" height="87" viewBox="0 0 87 87" fill="none" xmlns="http://www.w3.org/2000/svg">
<path d="M43.4454 86.9701C67.4396 86.9701 86.8908 67.5012 86.8908 43.4851C86.8908 19.4689 67.4396 0 43.4454 0C19.4512 0 0 19.4689 0 43.4851C0 67.5012 19.4512 86.9701 43.4454 86.9701Z" fill="#64C9A7"/>
<path d="M38.2648 31.698C38.5439 32.1522 38.4019 32.7474 37.948 33.0256C37.4942 33.305 36.8995 33.1641 36.6204 32.7098C36.6119 32.6964 33.8244 28.1827 34.3838 26.8733C34.6642 26.2186 35.5246 25.9332 36.7236 25.5335C38.7684 24.8533 42.1445 23.7297 43.318 21.0113C44.5292 18.2091 43.9248 17.162 43.5862 16.8304C42.4528 16.941 38.9165 17.2446 37.6835 16.9009C36.2758 16.5073 34.5112 13.5569 33.9263 12.5172C32.5077 12.1528 27.3306 11.1057 24.571 14.429C26.0188 15.3291 27.9738 18.1447 29.1607 21.1947C29.7832 22.792 30.214 24.4792 30.2723 26.0157C30.3366 27.6798 29.9677 29.1836 28.958 30.2695C28.2396 31.0433 27.2238 31.5765 25.8464 31.7672C25.1935 31.8583 24.4326 31.8231 23.6693 31.6129C23.2992 31.5109 22.9278 31.3688 22.5674 31.1793C21.3708 33.0535 20.8866 35.8801 20.7908 38.8949C20.5893 45.2913 22.1572 52.4092 22.4994 53.6689C22.571 53.9288 22.7446 54.4049 22.9594 54.9953C24.2312 58.4777 26.8355 65.6187 22.3866 67.9971C19.7823 69.3903 19.2241 71.335 19.1318 72.4184H27.617C28.3124 66.735 32.572 34.5403 39.8048 34.8403C39.9298 34.8342 40.0584 34.8512 40.1834 34.8974C44.8884 36.6064 48.3628 39.4645 50.9246 42.8668C52.6321 41.3825 53.728 39.8399 53.2183 38.3434C53.1867 38.2535 52.9124 38.064 52.5824 37.8369C52.0326 37.4579 51.387 37.0121 50.8385 36.2457C50.0909 35.2023 49.7086 33.4677 49.6383 31.9956C49.6055 31.3117 49.6383 30.6667 49.7329 30.1602C49.8591 29.4824 50.1322 28.9601 50.5545 28.7026C50.5921 28.6783 50.6322 28.6564 50.6734 28.637C50.8834 28.5398 51.1091 28.5046 51.347 28.5362C51.529 28.5556 52.1892 28.3054 52.9707 27.9677C54.2631 27.409 55.7267 26.6267 56.2364 26.2866C57.2303 25.6295 58.9632 25.9659 60.0178 26.1724C60.2824 26.2235 60.4474 26.266 60.4656 26.2648C60.7011 26.2465 60.502 25.9939 60.8285 25.6453C61.428 25.0064 62.1488 24.2387 62.7556 23.8791C63.5287 23.42 64.2034 23.4249 64.6718 24.2156L64.8005 24.416L64.798 24.4185C65.3951 25.3282 66.207 26.5696 64.6779 30.5586C65.616 31.9615 66.5031 34.4334 67.2312 37.1275C68.2494 40.8978 68.9836 45.182 69.088 47.4789C69.2724 51.5468 64.9643 62.3756 64.6888 63.0643L64.6718 63.1105C64.6658 63.125 62.4571 68.3845 65.0711 67.9497C70.2202 67.0909 70.3088 72.7197 70.2967 73.4959L70.2979 73.5505C70.2979 74.085 69.8659 74.5174 69.3331 74.5174H61.7302C61.1974 74.5174 60.7642 74.085 60.7642 73.5505C60.7642 73.0173 61.1974 72.5849 61.7302 72.5849H68.321C68.1693 71.3823 67.5844 69.485 65.3878 69.8519C59.314 70.8649 62.8818 62.3938 62.8915 62.3707L62.9012 62.3464C63.1743 61.665 67.3307 51.2189 67.1645 47.5615C67.0662 45.3909 66.3563 41.2829 65.3684 37.6255C64.6136 34.8318 63.7168 32.349 62.8503 31.3263C62.5991 31.0299 62.5578 30.6242 62.7131 30.2938C63.8709 27.4491 63.701 26.4105 63.3891 25.802C63.0384 26.1068 62.6076 26.566 62.2314 26.9668C61.6246 27.613 61.1197 28.1511 60.6101 28.19C60.3783 28.2082 60.0652 28.1475 59.6562 28.0673C58.8904 27.9179 57.6308 27.6726 57.3031 27.8912L57.2995 27.8936C56.7364 28.2702 55.1357 29.1277 53.7328 29.7338C52.9246 30.0837 52.1455 30.3558 51.5715 30.4335C51.6067 30.4456 51.6334 30.4663 51.6261 30.5076C51.5581 30.872 51.5351 31.3627 51.5618 31.9057C51.6164 33.0693 51.8882 34.3969 52.4064 35.1209C52.768 35.625 53.2583 35.9639 53.677 36.2517C54.2935 36.6769 54.8068 37.0316 55.0434 37.7251C55.9039 40.2456 54.3469 42.4721 52.029 44.452C59.3686 55.8346 57.8298 71.8864 57.7157 72.9833C57.6963 73.4995 57.2715 73.9125 56.7509 73.9125H38.4675C38.0051 73.9125 37.5961 73.5772 37.5172 73.1047C36.7466 68.54 37.033 62.6027 38.482 57.4477C39.7405 52.9692 41.8885 49.0434 45.0037 47.0149L45.8896 46.4392C47.0522 45.6897 48.2912 44.8905 49.4186 44.062C47.0716 40.944 43.9091 38.3349 39.6616 36.7607C33.6096 36.5311 29.4422 73.3878 29.4301 73.4934C29.3743 73.9866 28.9568 74.3498 28.4726 74.3498L18.1937 74.351C17.678 74.351 17.2569 73.9465 17.229 73.4375C17.1501 72.7549 16.8977 68.7502 21.4813 66.299C24.4545 64.709 22.2325 58.621 21.15 55.6524C20.9255 55.0366 20.7446 54.541 20.6439 54.1742C20.2883 52.866 18.6585 45.4699 18.8673 38.8341C18.9753 35.4367 19.5675 32.2081 21.0492 29.9841C20.9194 29.8347 20.7932 29.6743 20.6742 29.5043C20.3854 29.0925 20.1366 28.6249 19.9437 28.0965C19.1816 26.0145 19.0202 23.2621 19.6185 20.4465C20.1439 17.9734 21.2568 15.4311 23.0625 13.2314C26.9386 8.51118 34.2333 10.5895 34.8207 10.7656C35.0707 10.8312 35.2928 10.9964 35.4251 11.2418C35.4299 11.2515 37.3146 14.7971 38.1968 15.0437C39.3182 15.357 43.7246 14.8785 43.7367 14.8773V14.8797C43.9139 14.8602 44.0984 14.8906 44.2683 14.9756C44.2768 14.9805 47.3786 16.46 45.0838 21.7741C43.5668 25.2833 39.6822 26.5769 37.3267 27.3604C36.6107 27.5985 36.2175 27.4867 36.1568 27.6288C35.993 28.009 38.2587 31.687 38.2648 31.698ZM50.5145 45.646C49.3543 46.4987 48.1092 47.3028 46.9308 48.0632L46.0522 48.6304C43.3702 50.3759 41.4807 53.9021 40.3375 57.9688C39.0487 62.5578 38.7272 67.7894 39.2951 71.98H55.8699C56.1284 68.5084 56.6454 55.2625 50.5145 45.646ZM23.4399 16.0057C22.4837 17.5495 21.8514 19.2136 21.5043 20.8461C20.9825 23.3046 21.1099 25.672 21.7543 27.432C21.8927 27.8098 22.0601 28.1305 22.2507 28.4014C22.4497 28.6856 22.6815 28.9261 22.9315 29.1253C23.321 29.4363 23.7506 29.6391 24.1742 29.7557C24.6717 29.893 25.1632 29.916 25.5831 29.8577C26.4848 29.7326 27.1231 29.4132 27.5478 28.9565C28.1704 28.286 28.3937 27.262 28.3488 26.0838C28.299 24.7792 27.918 23.307 27.3658 21.8883C26.2773 19.0934 24.5928 16.5948 23.4885 16.0324L23.4399 16.0057Z" fill="white"/>
</svg>
