<svg width="281" height="87" viewBox="0 0 281 87" fill="none" xmlns="http://www.w3.org/2000/svg">
<path d="M43.4454 86.9701C67.4396 86.9701 86.8908 67.5012 86.8908 43.4851C86.8908 19.4689 67.4396 0 43.4454 0C19.4512 0 0 19.4689 0 43.4851C0 67.5012 19.4512 86.9701 43.4454 86.9701Z" fill="#64C9A7"/>
<path d="M38.2648 31.698C38.5439 32.1522 38.4019 32.7474 37.948 33.0256C37.4942 33.305 36.8995 33.1641 36.6204 32.7098C36.6119 32.6964 33.8244 28.1827 34.3838 26.8733C34.6642 26.2186 35.5246 25.9332 36.7236 25.5335C38.7684 24.8533 42.1445 23.7297 43.318 21.0113C44.5292 18.2091 43.9248 17.162 43.5862 16.8304C42.4528 16.941 38.9165 17.2446 37.6835 16.9009C36.2758 16.5073 34.5112 13.5569 33.9263 12.5172C32.5077 12.1528 27.3306 11.1057 24.571 14.429C26.0188 15.3291 27.9738 18.1447 29.1607 21.1947C29.7832 22.792 30.214 24.4792 30.2723 26.0157C30.3366 27.6798 29.9677 29.1836 28.958 30.2695C28.2396 31.0433 27.2238 31.5765 25.8464 31.7672C25.1935 31.8583 24.4326 31.8231 23.6693 31.6129C23.2992 31.5109 22.9278 31.3688 22.5674 31.1793C21.3708 33.0535 20.8866 35.8801 20.7908 38.8949C20.5893 45.2913 22.1572 52.4092 22.4994 53.6689C22.571 53.9288 22.7446 54.4049 22.9594 54.9953C24.2312 58.4777 26.8355 65.6187 22.3866 67.9971C19.7823 69.3903 19.2241 71.335 19.1318 72.4184H27.617C28.3124 66.735 32.572 34.5403 39.8048 34.8403C39.9298 34.8342 40.0584 34.8512 40.1834 34.8974C44.8884 36.6064 48.3628 39.4645 50.9246 42.8668C52.6321 41.3825 53.728 39.8399 53.2183 38.3434C53.1867 38.2535 52.9124 38.064 52.5824 37.8369C52.0326 37.4579 51.387 37.0121 50.8385 36.2457C50.0909 35.2023 49.7086 33.4677 49.6383 31.9956C49.6055 31.3117 49.6383 30.6667 49.7329 30.1602C49.8591 29.4824 50.1322 28.9601 50.5545 28.7026C50.5921 28.6783 50.6322 28.6564 50.6734 28.637C50.8834 28.5398 51.1091 28.5046 51.347 28.5362C51.529 28.5556 52.1892 28.3054 52.9707 27.9677C54.2631 27.409 55.7267 26.6267 56.2364 26.2866C57.2303 25.6295 58.9632 25.9659 60.0178 26.1724C60.2824 26.2235 60.4474 26.266 60.4656 26.2648C60.7011 26.2465 60.502 25.9939 60.8285 25.6453C61.428 25.0064 62.1488 24.2387 62.7556 23.8791C63.5287 23.42 64.2034 23.4249 64.6718 24.2156L64.8005 24.416L64.798 24.4185C65.3951 25.3282 66.207 26.5696 64.6779 30.5586C65.616 31.9615 66.5031 34.4334 67.2312 37.1275C68.2494 40.8978 68.9836 45.182 69.088 47.4789C69.2724 51.5468 64.9643 62.3756 64.6888 63.0643L64.6718 63.1105C64.6658 63.125 62.4571 68.3845 65.0711 67.9497C70.2202 67.0909 70.3088 72.7197 70.2967 73.4959L70.2979 73.5505C70.2979 74.085 69.8659 74.5174 69.3331 74.5174H61.7302C61.1974 74.5174 60.7642 74.085 60.7642 73.5505C60.7642 73.0173 61.1974 72.5849 61.7302 72.5849H68.321C68.1693 71.3823 67.5844 69.485 65.3878 69.8519C59.314 70.8649 62.8818 62.3938 62.8915 62.3707L62.9012 62.3464C63.1743 61.665 67.3307 51.2189 67.1645 47.5615C67.0662 45.3909 66.3563 41.2829 65.3684 37.6255C64.6136 34.8318 63.7168 32.349 62.8503 31.3263C62.5991 31.0299 62.5578 30.6242 62.7131 30.2938C63.8709 27.4491 63.701 26.4105 63.3891 25.802C63.0384 26.1068 62.6076 26.566 62.2314 26.9668C61.6246 27.613 61.1197 28.1511 60.6101 28.19C60.3783 28.2082 60.0652 28.1475 59.6562 28.0673C58.8904 27.9179 57.6308 27.6726 57.3031 27.8912L57.2995 27.8936C56.7364 28.2702 55.1357 29.1277 53.7328 29.7338C52.9246 30.0837 52.1455 30.3558 51.5715 30.4335C51.6067 30.4456 51.6334 30.4663 51.6261 30.5076C51.5581 30.872 51.5351 31.3627 51.5618 31.9057C51.6164 33.0693 51.8882 34.3969 52.4064 35.1209C52.768 35.625 53.2583 35.9639 53.677 36.2517C54.2935 36.6769 54.8068 37.0316 55.0434 37.7251C55.9039 40.2456 54.3469 42.4721 52.029 44.452C59.3686 55.8346 57.8298 71.8864 57.7157 72.9833C57.6963 73.4995 57.2715 73.9125 56.7509 73.9125H38.4675C38.0051 73.9125 37.5961 73.5772 37.5172 73.1047C36.7466 68.54 37.033 62.6027 38.482 57.4477C39.7405 52.9692 41.8885 49.0434 45.0037 47.0149L45.8896 46.4392C47.0522 45.6897 48.2912 44.8905 49.4186 44.062C47.0716 40.944 43.9091 38.3349 39.6616 36.7607C33.6096 36.5311 29.4422 73.3878 29.4301 73.4934C29.3743 73.9866 28.9568 74.3498 28.4726 74.3498L18.1937 74.351C17.678 74.351 17.2569 73.9465 17.229 73.4375C17.1501 72.7549 16.8977 68.7502 21.4813 66.299C24.4545 64.709 22.2325 58.621 21.15 55.6524C20.9255 55.0366 20.7446 54.541 20.6439 54.1742C20.2883 52.866 18.6585 45.4699 18.8673 38.8341C18.9753 35.4367 19.5675 32.2081 21.0492 29.9841C20.9194 29.8347 20.7932 29.6743 20.6742 29.5043C20.3854 29.0925 20.1366 28.6249 19.9437 28.0965C19.1816 26.0145 19.0202 23.2621 19.6185 20.4465C20.1439 17.9734 21.2568 15.4311 23.0625 13.2314C26.9386 8.51118 34.2333 10.5895 34.8207 10.7656C35.0707 10.8312 35.2928 10.9964 35.4251 11.2418C35.4299 11.2515 37.3146 14.7971 38.1968 15.0437C39.3182 15.357 43.7246 14.8785 43.7367 14.8773V14.8797C43.9139 14.8602 44.0984 14.8906 44.2683 14.9756C44.2768 14.9805 47.3786 16.46 45.0838 21.7741C43.5668 25.2833 39.6822 26.5769 37.3267 27.3604C36.6107 27.5985 36.2175 27.4867 36.1568 27.6288C35.993 28.009 38.2587 31.687 38.2648 31.698ZM50.5145 45.646C49.3543 46.4987 48.1092 47.3028 46.9308 48.0632L46.0522 48.6304C43.3702 50.3759 41.4807 53.9021 40.3375 57.9688C39.0487 62.5578 38.7272 67.7894 39.2951 71.98H55.8699C56.1284 68.5084 56.6454 55.2625 50.5145 45.646ZM23.4399 16.0057C22.4837 17.5495 21.8514 19.2136 21.5043 20.8461C20.9825 23.3046 21.1099 25.672 21.7543 27.432C21.8927 27.8098 22.0601 28.1305 22.2507 28.4014C22.4497 28.6856 22.6815 28.9261 22.9315 29.1253C23.321 29.4363 23.7506 29.6391 24.1742 29.7557C24.6717 29.893 25.1632 29.916 25.5831 29.8577C26.4848 29.7326 27.1231 29.4132 27.5478 28.9565C28.1704 28.286 28.3937 27.262 28.3488 26.0838C28.299 24.7792 27.918 23.307 27.3658 21.8883C26.2773 19.0934 24.5928 16.5948 23.4885 16.0324L23.4399 16.0057Z" fill="white"/>
<path d="M262.437 32.7243L273.549 26.4056C273.445 26.3012 273.332 26.1797 273.211 26.04C273.088 25.9003 272.94 25.7449 272.767 25.57C272.418 25.2226 271.95 24.9092 271.358 24.6298C270.767 24.3516 269.915 24.212 268.802 24.212C266.366 24.212 264.514 25.0659 263.245 26.7713C261.976 28.4766 261.341 30.3569 261.341 32.411C261.341 32.4462 261.341 32.4717 261.341 32.4899C261.341 32.5069 261.341 32.5324 261.341 32.5676C261.375 34.3787 262.019 36.0319 263.27 37.5296C264.523 39.026 266.366 39.7743 268.802 39.7743C271.341 39.7743 273.054 39.1742 273.94 37.9729C274.827 36.7716 275.549 35.0917 276.106 32.9333C276.106 32.898 276.115 32.8725 276.132 32.8555C276.15 32.8373 276.158 32.8118 276.158 32.7766L280.28 33.0899V34.0823C280.28 34.6046 280.219 35.144 280.098 35.7015C279.975 36.2578 279.793 36.8153 279.549 37.3716C278.819 38.9738 277.558 40.4363 275.766 41.759C273.975 43.0818 271.654 43.7438 268.802 43.7438C265.428 43.7438 262.61 42.681 260.349 40.5577C258.089 38.4345 256.958 35.7185 256.958 32.411C256.958 28.8253 257.915 26.0752 259.828 24.1597C261.74 22.2454 263.827 21.0271 266.088 20.5048C266.575 20.4003 267.036 20.3214 267.471 20.2691C267.906 20.2169 268.349 20.1914 268.802 20.1914C271.376 20.1914 273.584 20.9056 275.428 22.3329C277.271 23.7601 278.766 25.5007 279.914 27.5547L264.262 36.0149L262.437 32.7243Z" fill="#64C9A7"/>
<path d="M244.854 20.5047H248.923V22.6984C249.027 22.5587 249.158 22.402 249.315 22.2283C249.471 22.0534 249.636 21.8797 249.81 21.706C250.298 21.2177 250.924 20.7828 251.688 20.4002C252.454 20.0176 253.358 19.8257 254.402 19.8257L255.966 19.7734V23.794H254.871C253.132 24.0381 251.845 24.6479 251.01 25.6221C250.175 26.5974 249.619 27.642 249.34 28.7559C249.131 29.5211 249.01 30.2609 248.975 30.9751C248.941 31.6881 248.923 32.2894 248.923 32.7764V43.0124H244.854V20.5047Z" fill="#64C9A7"/>
<path d="M237.132 43.0126V30.0618C237.132 30.0618 237.132 30.0521 237.132 30.0351C237.132 30.0181 237.132 29.9913 237.132 29.9573C237.098 28.5289 236.532 27.2146 235.436 26.0145C234.34 24.8132 232.453 24.212 229.775 24.212C229.357 24.212 228.871 24.2642 228.314 24.3686C227.758 24.4731 227.201 24.665 226.645 24.9432C225.602 25.3962 224.645 26.153 223.775 27.2146C222.906 28.2774 222.418 29.7654 222.314 31.6797C222.314 34.256 223.045 36.1448 224.506 37.3461C225.967 38.5475 227.584 39.2179 229.357 39.3564C229.462 39.3916 229.584 39.4086 229.723 39.4086C229.862 39.4086 230.002 39.4086 230.14 39.4086C230.871 39.4086 231.532 39.2872 232.123 39.043C232.714 38.8001 233.305 38.4685 233.897 38.0506C234.175 37.8077 234.453 37.5551 234.732 37.2939C235.01 37.0328 235.305 36.7461 235.618 36.4327V41.5501C234.889 42.1416 234.079 42.5947 233.192 42.9081C232.305 43.2215 231.044 43.3782 229.41 43.3782H228.731C225.949 43.3782 223.514 42.3068 221.427 40.1666C219.341 38.0251 218.297 35.1962 218.297 31.6797C218.297 28.4766 219.297 25.7619 221.297 23.533C223.297 21.3053 226.245 20.1914 230.14 20.1914C233.827 20.1914 236.662 21.1838 238.645 23.1673C240.628 25.1521 241.619 27.3458 241.619 29.7484V43.0126H237.132Z" fill="#64C9A7"/>
<path d="M200.609 31.9931C200.609 31.4367 200.68 30.8015 200.818 30.0872C200.958 29.3742 201.183 28.6685 201.496 27.9725C202.192 26.1967 203.375 24.5775 205.045 23.1163C206.714 21.6538 208.94 20.9226 211.723 20.9226L216.105 20.8704V24.8909H212.819C212.402 24.9261 211.949 24.9784 211.462 25.0476C210.976 25.1181 210.471 25.2565 209.949 25.4654C208.801 25.8481 207.749 26.5538 206.792 27.5802C205.836 28.6078 205.358 30.0958 205.358 32.0453C205.358 32.4291 205.392 32.8203 205.462 33.2211C205.532 33.6207 205.619 34.0301 205.723 34.4479C206.106 35.631 206.801 36.7108 207.809 37.685C208.819 38.6604 210.245 39.1474 212.088 39.1474C212.122 39.1474 212.175 39.1474 212.245 39.1474C212.314 39.1474 212.366 39.1304 212.402 39.0952C212.436 39.0952 212.454 39.0952 212.454 39.0952C212.523 39.0952 212.592 39.0867 212.662 39.0697C212.732 39.0515 212.784 39.043 212.819 39.043H216.105V43.0125H211.358C208.471 42.9081 206.235 42.1416 204.653 40.7144C203.07 39.2871 201.966 37.7372 201.34 36.0671C201.097 35.3358 200.914 34.6301 200.793 33.9511C200.671 33.2733 200.609 32.638 200.609 32.0453V31.9931Z" fill="#64C9A7"/>
<path d="M178.967 43.1171V36.6417H185.549C186.427 36.6417 187.366 36.6064 188.357 36.5372C189.47 36.4583 190.027 36.0841 190.027 35.4136C190.027 34.8743 189.575 34.3787 188.679 33.9427C187.654 33.4301 186.792 33.0207 186.123 32.7159L184.802 32.1328C183.009 31.3494 181.688 30.5926 180.844 29.8614C179.523 28.7208 178.863 27.2061 178.863 25.3003C178.863 23.2293 179.61 21.5664 181.097 20.3044C182.445 19.182 184.445 18.6245 187.105 18.6245H196.392V25.0999H190.47C189.689 25.0999 188.819 25.1266 187.862 25.1788C186.871 25.2311 186.374 25.536 186.374 26.0923C186.374 26.5186 186.74 26.911 187.47 27.2669C188.019 27.5195 188.923 27.9119 190.201 28.4427L191.549 29.0257C195.54 30.6874 197.54 33.1337 197.54 36.3623C197.54 37.6681 197.192 38.8949 196.497 40.0354C195.714 41.3412 194.541 42.2461 192.958 42.7599C192.184 42.9944 190.766 43.1171 188.714 43.1171H178.967Z" fill="#E6E6E6"/>
<path d="M170.018 25.4132V32.4717C170.036 34.0653 170.375 35.1524 171.036 35.7355C171.688 36.2493 172.732 36.5019 174.184 36.4849H176.175V43.117H173.21C165.784 43.4037 162.167 40.1484 162.349 33.3426V11H170.018V18.7812H176.175V25.4132H170.018Z" fill="#E6E6E6"/>
<path d="M154.357 32.1766L159.15 36.3805C157.566 38.6775 156.027 40.3319 154.532 41.3498C152.106 43.0126 149.401 43.8483 146.428 43.8483C142.688 43.8483 139.541 42.5426 136.992 39.9225C134.567 37.4069 133.349 34.4213 133.349 30.9753C133.349 28.286 134.105 25.8227 135.619 23.5767C136.932 21.6102 138.671 20.1307 140.844 19.1469C142.593 18.3464 144.489 17.9456 146.531 17.9456C150.731 17.9456 154.036 19.5392 156.453 22.7155C157.045 23.5075 157.732 24.7963 158.514 26.5624L145.219 34.5173L142.541 29.8529L149.671 25.4133C148.723 24.5776 147.618 24.1598 146.366 24.1598C144.802 24.1598 143.506 24.7428 142.47 25.9186C141.401 27.1102 140.863 28.6079 140.863 30.4092C140.863 32.2895 141.41 33.8565 142.514 35.0918C143.688 36.4061 145.192 37.0596 147.027 37.0596C149.044 37.0596 150.793 36.3805 152.271 35.014C153.088 34.2476 153.783 33.2989 154.357 32.1766Z" fill="#E6E6E6"/>
<path d="M104.593 53.4563V31.5328C104.593 27.7285 105.697 24.6129 107.906 22.2017C110.488 19.3643 113.722 17.9456 117.601 17.9456C121.488 17.9456 124.697 19.278 127.21 21.9491C129.592 24.4829 130.784 27.4855 130.784 30.9753C130.784 32.6552 130.462 34.2998 129.828 35.8923C129.193 37.4944 128.297 38.8864 127.141 40.0707C126.001 41.2623 124.661 42.194 123.123 42.8559C121.584 43.5167 120.01 43.8483 118.392 43.8483C116.966 43.8483 115.444 43.3868 113.827 42.4551V34.7007C115.2 35.6833 116.461 36.1716 117.601 36.1716C119.062 36.1716 120.279 35.6833 121.244 34.7177C122.244 33.7083 122.749 32.4377 122.749 30.8793C122.749 29.5395 122.348 28.382 121.549 27.4066C120.557 26.2138 119.254 25.6223 117.636 25.6223C115.653 25.6223 114.167 26.4749 113.158 28.173C112.557 29.1739 112.262 30.7056 112.262 32.7596V53.4563H104.593Z" fill="#E6E6E6"/>
<path d="M129.258 71.9337C129.194 72.501 129 73.0038 128.677 73.4435C128.353 73.8808 127.934 74.2173 127.415 74.4529C126.897 74.6874 126.337 74.7991 125.735 74.787C125.194 74.776 124.722 74.6509 124.32 74.4116C123.919 74.1735 123.601 73.8262 123.37 73.3743C123.138 72.9188 123.008 72.3977 122.977 71.8062C122.953 71.3446 123 70.7676 123.121 70.0789C123.245 69.389 123.462 68.778 123.775 68.2436C124.09 67.7079 124.462 67.2864 124.895 66.9718C125.503 66.5369 126.199 66.3244 126.979 66.3402C127.83 66.356 128.503 66.6171 129.002 67.1297C129.5 67.6399 129.774 68.3492 129.821 69.2566L128.177 69.2505C128.177 68.7306 128.073 68.3504 127.865 68.1099C127.659 67.8694 127.337 67.7419 126.903 67.7273C126.338 67.7079 125.875 67.9095 125.512 68.3322C125.149 68.7537 124.905 69.3683 124.783 70.1773C124.661 70.9644 124.609 71.5535 124.625 71.9446C124.643 72.4414 124.754 72.8083 124.957 73.0427C125.159 73.2771 125.444 73.401 125.808 73.412C126.312 73.4314 126.715 73.3124 127.018 73.0536C127.32 72.7961 127.52 72.4269 127.619 71.9446L129.258 71.9337Z" fill="#E6E6E6"/>
<path d="M133.282 73.3087H136.768L136.529 74.6716H131.395L132.821 66.4556H134.472L133.282 73.3087Z" fill="#E6E6E6"/>
<path d="M140.719 74.6718H139.066L140.486 66.4558H142.14L140.719 74.6718ZM141.935 64.2378H143.778L141.986 65.9821H140.583L141.935 64.2378Z" fill="#E6E6E6"/>
<path d="M150.213 74.6716H148.612L146.328 69.1922L145.376 74.6716H143.725L145.151 66.4556H146.746L149.036 71.9471L149.988 66.4556H151.633L150.213 74.6716Z" fill="#E6E6E6"/>
<path d="M154.892 74.6716H153.239L154.659 66.4556H156.312L154.892 74.6716Z" fill="#E6E6E6"/>
<path d="M164.587 71.9337C164.524 72.501 164.33 73.0038 164.007 73.4435C163.683 73.8808 163.265 74.2173 162.744 74.4529C162.227 74.6874 161.668 74.7991 161.064 74.787C160.524 74.776 160.052 74.6509 159.651 74.4116C159.248 74.1735 158.931 73.8262 158.7 73.3743C158.469 72.9188 158.338 72.3977 158.307 71.8062C158.283 71.3446 158.33 70.7676 158.452 70.0789C158.575 69.389 158.793 68.778 159.106 68.2436C159.42 67.7079 159.793 67.2864 160.226 66.9718C160.834 66.5369 161.528 66.3244 162.31 66.3402C163.16 66.356 163.834 66.6171 164.333 67.1297C164.83 67.6399 165.103 68.3492 165.152 69.2566L163.506 69.2505C163.506 68.7306 163.403 68.3504 163.194 68.1099C162.989 67.8694 162.667 67.7419 162.233 67.7273C161.669 67.7079 161.205 67.9095 160.841 68.3322C160.479 68.7537 160.236 69.3683 160.112 70.1773C159.99 70.9644 159.939 71.5535 159.954 71.9446C159.973 72.4414 160.084 72.8083 160.288 73.0427C160.489 73.2771 160.774 73.401 161.137 73.412C161.642 73.4314 162.044 73.3124 162.348 73.0536C162.651 72.7961 162.851 72.4269 162.949 71.9446L164.587 71.9337Z" fill="#E6E6E6"/>
<path d="M171.549 72.9844H168.685L167.841 74.6716H166.019L170.406 66.4556H171.934L173.495 74.6716H171.809L171.549 72.9844ZM169.364 71.6094H171.342L170.88 68.5497L169.364 71.6094Z" fill="#E6E6E6"/>
<path d="M181.902 72.6176L184.664 66.4556H186.559L182.506 74.6716H180.781L179.303 66.4556H181.08L181.902 72.6176Z" fill="#E6E6E6"/>
<path d="M192.845 71.1017H189.7L189.316 73.3087H193.015L192.778 74.6716H187.429L188.855 66.4556H194.192L193.949 67.8306H190.269L189.924 69.7837H193.082L192.845 71.1017Z" fill="#E6E6E6"/>
<path d="M202.523 67.8306H200.087L198.904 74.6716H197.253L198.437 67.8306H196.029L196.272 66.4556H202.766L202.523 67.8306Z" fill="#E6E6E6"/>
<path d="M209.181 71.1017H206.035L205.652 73.3087H209.351L209.114 74.6716H203.765L205.191 66.4556H210.528L210.285 67.8306H206.604L206.26 69.7837H209.417L209.181 71.1017Z" fill="#E6E6E6"/>
<path d="M215.079 71.6677H213.735L213.212 74.6716H211.561L212.986 66.4556L215.704 66.4616C216.614 66.4616 217.313 66.6754 217.803 67.1054C218.293 67.5342 218.511 68.1318 218.455 68.8946C218.376 70.0243 217.774 70.8089 216.65 71.2498L217.807 74.5817V74.6716H216.048L215.079 71.6677ZM213.972 70.2927L215.201 70.3036C215.638 70.2963 215.999 70.1785 216.281 69.9514C216.565 69.7242 216.735 69.4157 216.791 69.0246C216.844 68.6614 216.785 68.3759 216.616 68.1682C216.449 67.9617 216.179 67.8524 215.812 67.8366L214.401 67.8306L213.972 70.2927Z" fill="#E6E6E6"/>
<path d="M221.967 74.6716H220.314L221.734 66.4556H223.387L221.967 74.6716Z" fill="#E6E6E6"/>
<path d="M231.461 74.6716H229.86L227.575 69.1922L226.622 74.6716H224.972L226.398 66.4556H227.992L230.282 71.9471L231.235 66.4556H232.88L231.461 74.6716Z" fill="#E6E6E6"/>
<path d="M239.305 72.9844H236.441L235.596 74.6716H233.775L238.162 66.4556H239.69L241.25 74.6716H239.565L239.305 72.9844ZM237.119 71.6094H239.096L238.635 68.5497L237.119 71.6094Z" fill="#E6E6E6"/>
<path d="M247.034 71.6677H245.691L245.168 74.6716H243.516L244.942 66.4556L247.659 66.4616C248.569 66.4616 249.268 66.6754 249.759 67.1054C250.249 67.5342 250.466 68.1318 250.41 68.8946C250.331 70.0243 249.73 70.8089 248.606 71.2498L249.762 74.5817V74.6716H248.004L247.034 71.6677ZM245.927 70.2927L247.157 70.3036C247.594 70.2963 247.954 70.1785 248.237 69.9514C248.521 69.7242 248.691 69.4157 248.747 69.0246C248.8 68.6614 248.74 68.3759 248.572 68.1682C248.404 67.9617 248.135 67.8524 247.767 67.8366L246.357 67.8306L245.927 70.2927Z" fill="#E6E6E6"/>
<path d="M253.922 74.6716H252.27L253.689 66.4556H255.342L253.922 74.6716Z" fill="#E6E6E6"/>
<path d="M261.851 72.9844H258.988L258.143 74.6716H256.322L260.709 66.4556H262.236L263.797 74.6716H262.111L261.851 72.9844ZM259.665 71.6094H261.643L261.182 68.5497L259.665 71.6094Z" fill="#E6E6E6"/>
<path d="M127.317 53.4563V54.9637H124.306V53.4563H127.317ZM262.776 53.4563V54.9637H259.767V53.4563H262.776ZM255.251 53.4563V54.9637H252.24V53.4563H255.251ZM247.726 53.4563V54.9637H244.715V53.4563H247.726ZM240.199 53.4563V54.9637H237.19V53.4563H240.199ZM232.674 53.4563V54.9637H229.664V53.4563H232.674ZM225.149 53.4563V54.9637H222.139V53.4563H225.149ZM217.623 53.4563V54.9637H214.613V53.4563H217.623ZM210.098 53.4563V54.9637H207.087V53.4563H210.098ZM202.572 53.4563V54.9637H199.562V53.4563H202.572ZM195.046 53.4563V54.9637H192.037V53.4563H195.046ZM187.521 53.4563V54.9637H184.51V53.4563H187.521ZM179.996 53.4563V54.9637H176.985V53.4563H179.996ZM172.469 53.4563V54.9637H169.46V53.4563H172.469ZM164.944 53.4563V54.9637H161.934V53.4563H164.944ZM157.419 53.4563V54.9637H154.408V53.4563H157.419ZM149.894 53.4563V54.9637H146.883V53.4563H149.894ZM142.367 53.4563V54.9637H139.357V53.4563H142.367ZM134.842 53.4563V54.9637H131.832V53.4563H134.842Z" fill="#E6E6E6"/>
</svg>
