<?xml version="1.0" encoding="UTF-8"?>
<!DOCTYPE svg PUBLIC "-//W3C//DTD SVG 1.1//EN" "http://www.w3.org/Graphics/SVG/1.1/DTD/svg11.dtd">
<!-- Creator: CorelDRAW 2020 (64-Bit) -->
<svg xmlns="http://www.w3.org/2000/svg" xml:space="preserve" width="210px" height="65px" version="1.1" style="shape-rendering:geometricPrecision; text-rendering:geometricPrecision; image-rendering:optimizeQuality; fill-rule:evenodd; clip-rule:evenodd"
viewBox="0 0 208.563 64.717"
 xmlns:xlink="http://www.w3.org/1999/xlink"
 xmlns:xodm="http://www.corel.com/coreldraw/odm/2003">
 <defs>
  <style type="text/css">
   <![CDATA[
    .fil2 {fill:#573469;fill-rule:nonzero}
    .fil0 {fill:#64C9A7;fill-rule:nonzero}
    .fil1 {fill:white;fill-rule:nonzero}
   ]]>
  </style>
 </defs>
 <g id="Capa_x0020_1">
  <metadata id="CorelCorpID_0Corel-Layer"/>
  <g id="_1762656740272">
   <path class="fil0" d="M32.329 64.717c17.854,0 32.328,-14.488 32.328,-32.359 0,-17.871 -14.474,-32.358 -32.328,-32.358 -17.855,0 -32.329,14.487 -32.329,32.358 0,17.871 14.474,32.359 32.329,32.359z"/>
   <path class="fil1" d="M28.474 23.587c0.208,0.338 0.102,0.781 -0.236,0.988 -0.337,0.208 -0.78,0.103 -0.988,-0.235 -0.006,-0.01 -2.08,-3.368 -1.664,-4.343 0.209,-0.487 0.849,-0.699 1.741,-0.997 1.522,-0.506 4.034,-1.342 4.907,-3.365 0.901,-2.085 0.451,-2.864 0.199,-3.111 -0.843,0.082 -3.474,0.308 -4.392,0.052 -1.047,-0.292 -2.36,-2.488 -2.795,-3.261 -1.056,-0.272 -4.908,-1.051 -6.962,1.422 1.077,0.67 2.532,2.765 3.415,5.035 0.464,1.188 0.784,2.444 0.828,3.587 0.047,1.238 -0.227,2.357 -0.979,3.165 -0.534,0.576 -1.29,0.973 -2.315,1.115 -0.486,0.068 -1.052,0.041 -1.62,-0.115 -0.275,-0.076 -0.552,-0.182 -0.82,-0.323 -0.89,1.395 -1.251,3.498 -1.322,5.742 -0.15,4.759 1.017,10.056 1.271,10.993 0.054,0.194 0.183,0.548 0.343,0.987 0.946,2.591 2.884,7.905 -0.426,9.675 -1.938,1.037 -2.354,2.484 -2.422,3.29l6.314 0c0.517,-4.229 3.687,-28.186 9.069,-27.962 0.093,-0.005 0.189,0.008 0.282,0.042 3.501,1.272 6.086,3.399 7.992,5.93 1.271,-1.104 2.086,-2.252 1.707,-3.366 -0.023,-0.066 -0.228,-0.208 -0.473,-0.377 -0.409,-0.281 -0.89,-0.613 -1.298,-1.184 -0.556,-0.776 -0.841,-2.067 -0.893,-3.162 -0.025,-0.509 0,-0.989 0.07,-1.366 0.094,-0.504 0.298,-0.893 0.612,-1.084 0.028,-0.019 0.058,-0.035 0.088,-0.049 0.156,-0.073 0.325,-0.099 0.501,-0.075 0.136,0.014 0.627,-0.172 1.209,-0.423 0.962,-0.416 2.05,-0.998 2.43,-1.251 0.739,-0.489 2.029,-0.239 2.814,-0.085 0.197,0.038 0.319,0.069 0.333,0.069 0.175,-0.014 0.027,-0.202 0.27,-0.462 0.446,-0.475 0.982,-1.046 1.434,-1.314 0.575,-0.341 1.077,-0.338 1.426,0.251l0.096 0.149 -0.002 0.002c0.444,0.676 1.048,1.6 -0.09,4.568 0.698,1.044 1.359,2.884 1.9,4.888 0.758,2.806 1.304,5.994 1.382,7.703 0.137,3.027 -3.069,11.085 -3.274,11.598l-0.012 0.034c-0.005,0.011 -1.648,3.924 0.297,3.601 3.831,-0.639 3.897,3.549 3.888,4.127l0.001 0.041c0,0.397 -0.321,0.719 -0.718,0.719l-5.657 0c-0.396,0 -0.719,-0.322 -0.719,-0.719 0,-0.397 0.323,-0.719 0.719,-0.719l4.904 0c-0.113,-0.895 -0.548,-2.307 -2.182,-2.034 -4.52,0.754 -1.865,-5.549 -1.858,-5.567l0.007 -0.018c0.203,-0.507 3.296,-8.28 3.173,-11.002 -0.074,-1.615 -0.602,-4.671 -1.337,-7.393 -0.562,-2.079 -1.229,-3.926 -1.874,-4.687 -0.187,-0.221 -0.217,-0.523 -0.102,-0.768 0.862,-2.117 0.735,-2.89 0.503,-3.343 -0.261,0.227 -0.581,0.568 -0.861,0.867 -0.452,0.481 -0.827,0.881 -1.207,0.91 -0.172,0.013 -0.405,-0.032 -0.709,-0.091 -0.57,-0.112 -1.508,-0.294 -1.751,-0.131l-0.003 0.001c-0.419,0.281 -1.61,0.919 -2.654,1.37 -0.602,0.26 -1.181,0.463 -1.609,0.52 0.027,0.009 0.047,0.025 0.041,0.055 -0.05,0.272 -0.068,0.637 -0.048,1.041 0.041,0.866 0.243,1.854 0.629,2.392 0.269,0.376 0.634,0.628 0.945,0.842 0.459,0.316 0.841,0.58 1.017,1.096 0.64,1.876 -0.518,3.533 -2.243,5.006 5.462,8.47 4.316,20.414 4.232,21.231 -0.015,0.384 -0.331,0.691 -0.718,0.691l-13.605 0c-0.344,0 -0.649,-0.25 -0.707,-0.601 -0.574,-3.397 -0.361,-7.815 0.717,-11.651 0.937,-3.332 2.535,-6.254 4.853,-7.763l0.66 -0.429c0.865,-0.557 1.787,-1.152 2.626,-1.769 -1.747,-2.32 -4.1,-4.261 -7.261,-5.432 -4.503,-0.171 -7.604,27.254 -7.613,27.333 -0.042,0.367 -0.352,0.637 -0.713,0.637l-7.648 0.001c-0.384,0 -0.698,-0.301 -0.718,-0.679 -0.059,-0.508 -0.247,-3.488 3.164,-5.313 2.212,-1.183 0.559,-5.713 -0.247,-7.922 -0.167,-0.458 -0.301,-0.827 -0.376,-1.1 -0.265,-0.973 -1.478,-6.477 -1.322,-11.414 0.08,-2.529 0.521,-4.931 1.623,-6.586 -0.096,-0.111 -0.19,-0.23 -0.279,-0.357 -0.215,-0.307 -0.4,-0.654 -0.543,-1.048 -0.567,-1.549 -0.687,-3.597 -0.242,-5.692 0.391,-1.84 1.219,-3.732 2.563,-5.369 2.884,-3.513 8.312,-1.966 8.749,-1.835 0.186,0.049 0.351,0.172 0.45,0.354 0.003,0.008 1.406,2.646 2.062,2.829 0.835,0.234 4.113,-0.123 4.122,-0.123l0 0.001c0.132,-0.014 0.269,0.008 0.396,0.072 0.006,0.003 2.314,1.104 0.607,5.059 -1.129,2.611 -4.019,3.574 -5.772,4.157 -0.533,0.177 -0.825,0.093 -0.871,0.199 -0.122,0.283 1.565,3.02 1.569,3.028zm9.115 10.379c-0.863,0.635 -1.79,1.233 -2.667,1.799l-0.654 0.422c-1.995,1.299 -3.401,3.923 -4.252,6.949 -0.959,3.415 -1.198,7.308 -0.775,10.426l12.333 0c0.192,-2.583 0.577,-12.44 -3.985,-19.596zm-20.147 -22.056c-0.711,1.149 -1.182,2.387 -1.44,3.602 -0.388,1.83 -0.293,3.591 0.186,4.901 0.103,0.281 0.228,0.52 0.369,0.721 0.149,0.212 0.321,0.391 0.507,0.539 0.29,0.231 0.61,0.382 0.925,0.469 0.37,0.102 0.736,0.119 1.048,0.076 0.671,-0.093 1.146,-0.331 1.462,-0.671 0.464,-0.499 0.629,-1.261 0.596,-2.137 -0.037,-0.971 -0.32,-2.067 -0.731,-3.122 -0.81,-2.08 -2.064,-3.939 -2.886,-4.358l-0.036 -0.02z"/>
   <path class="fil0" d="M195.285 24.351l8.269 -4.702c-0.077,-0.077 -0.162,-0.168 -0.252,-0.272 -0.091,-0.104 -0.201,-0.219 -0.33,-0.35 -0.26,-0.258 -0.608,-0.491 -1.048,-0.699 -0.44,-0.207 -1.074,-0.311 -1.902,-0.311 -1.813,0 -3.191,0.635 -4.135,1.904 -0.945,1.269 -1.417,2.669 -1.417,4.197 0,0.026 0,0.045 0,0.059 0,0.012 0,0.031 0,0.058 0.025,1.347 0.504,2.577 1.435,3.692 0.932,1.113 2.304,1.67 4.117,1.67 1.889,0 3.164,-0.446 3.823,-1.34 0.66,-0.894 1.197,-2.144 1.612,-3.751 0,-0.026 0.007,-0.045 0.019,-0.057 0.013,-0.014 0.019,-0.033 0.019,-0.059l3.068 0.233 0 0.738c0,0.389 -0.046,0.79 -0.136,1.205 -0.091,0.414 -0.227,0.829 -0.408,1.243 -0.543,1.192 -1.482,2.281 -2.815,3.265 -1.333,0.984 -3.06,1.477 -5.182,1.477 -2.511,0 -4.608,-0.791 -6.291,-2.371 -1.681,-1.58 -2.523,-3.601 -2.523,-6.062 0,-2.668 0.712,-4.715 2.136,-6.14 1.423,-1.425 2.976,-2.331 4.658,-2.72 0.362,-0.078 0.705,-0.136 1.029,-0.175 0.324,-0.039 0.654,-0.058 0.991,-0.058 1.915,0 3.558,0.531 4.93,1.593 1.372,1.063 2.484,2.358 3.338,3.886l-11.647 6.296 -1.358 -2.449z"/>
   <path class="fil0" d="M182.201 15.258l3.028 0 0 1.632c0.077,-0.103 0.175,-0.22 0.292,-0.349 0.116,-0.13 0.239,-0.26 0.368,-0.389 0.363,-0.363 0.829,-0.687 1.398,-0.972 0.57,-0.284 1.242,-0.427 2.019,-0.427l1.164 -0.039 0 2.992 -0.815 0c-1.294,0.181 -2.252,0.635 -2.873,1.36 -0.621,0.726 -1.035,1.503 -1.242,2.332 -0.156,0.569 -0.246,1.12 -0.272,1.651 -0.025,0.531 -0.039,0.979 -0.039,1.341l0 7.617 -3.028 0 0 -16.749z"/>
   <path class="fil0" d="M176.455 32.007l0 -9.637c0,0 0,-0.007 0,-0.02 0,-0.013 0,-0.033 0,-0.058 -0.025,-1.063 -0.446,-2.041 -1.262,-2.934 -0.815,-0.894 -2.22,-1.341 -4.212,-1.341 -0.311,0 -0.673,0.039 -1.088,0.117 -0.413,0.077 -0.828,0.22 -1.242,0.427 -0.775,0.337 -1.488,0.9 -2.135,1.69 -0.647,0.791 -1.01,1.898 -1.087,3.323 0,1.917 0.544,3.322 1.631,4.216 1.087,0.894 2.29,1.393 3.61,1.496 0.078,0.026 0.168,0.039 0.272,0.039 0.103,0 0.207,0 0.31,0 0.544,0 1.036,-0.09 1.476,-0.272 0.44,-0.181 0.88,-0.428 1.32,-0.738 0.207,-0.181 0.414,-0.369 0.621,-0.564 0.207,-0.194 0.427,-0.407 0.659,-0.64l0 3.808c-0.542,0.44 -1.145,0.777 -1.805,1.01 -0.66,0.233 -1.598,0.35 -2.814,0.35l-0.505 0c-2.07,0 -3.882,-0.797 -5.435,-2.39 -1.553,-1.594 -2.329,-3.698 -2.329,-6.315 0,-2.384 0.744,-4.404 2.232,-6.062 1.488,-1.658 3.682,-2.487 6.58,-2.487 2.744,0 4.854,0.738 6.329,2.214 1.476,1.478 2.213,3.11 2.213,4.898l0 9.87 -3.339 0z"/>
   <path class="fil0" d="M149.278 23.807c0,-0.414 0.053,-0.887 0.155,-1.418 0.105,-0.531 0.272,-1.056 0.505,-1.574 0.518,-1.321 1.398,-2.526 2.641,-3.614 1.242,-1.088 2.898,-1.632 4.969,-1.632l3.261 -0.039 0 2.992 -2.445 0c-0.311,0.026 -0.648,0.065 -1.01,0.117 -0.362,0.052 -0.738,0.155 -1.126,0.31 -0.854,0.285 -1.637,0.81 -2.349,1.574 -0.712,0.765 -1.067,1.872 -1.067,3.323 0,0.285 0.025,0.576 0.077,0.875 0.052,0.297 0.117,0.602 0.194,0.913 0.285,0.88 0.802,1.684 1.552,2.408 0.752,0.726 1.813,1.089 3.185,1.089 0.025,0 0.064,0 0.116,0 0.052,0 0.09,-0.013 0.117,-0.039 0.026,0 0.039,0 0.039,0 0.051,0 0.103,-0.007 0.155,-0.019 0.052,-0.014 0.09,-0.02 0.117,-0.02l2.445 0 0 2.954 -3.533 0c-2.148,-0.078 -3.812,-0.648 -4.989,-1.71 -1.178,-1.063 -1.999,-2.216 -2.465,-3.458 -0.181,-0.545 -0.317,-1.07 -0.407,-1.575 -0.091,-0.504 -0.137,-0.977 -0.137,-1.418l0 -0.039z"/>
   <path class="fil2" d="M133.173 32.085l0 -4.819 4.898 0c0.654,0 1.352,-0.026 2.09,-0.078 0.828,-0.058 1.242,-0.337 1.242,-0.836 0,-0.401 -0.336,-0.77 -1.003,-1.094 -0.762,-0.382 -1.404,-0.686 -1.902,-0.913l-0.983 -0.434c-1.334,-0.583 -2.317,-1.146 -2.945,-1.69 -0.983,-0.849 -1.474,-1.976 -1.474,-3.394 0,-1.541 0.556,-2.779 1.662,-3.718 1.003,-0.835 2.492,-1.25 4.471,-1.25l6.911 0 0 4.818 -4.407 0c-0.581,0 -1.228,0.02 -1.941,0.059 -0.737,0.039 -1.107,0.266 -1.107,0.68 0,0.317 0.272,0.609 0.816,0.874 0.408,0.188 1.081,0.48 2.032,0.875l1.003 0.434c2.97,1.236 4.458,3.057 4.458,5.459 0,0.972 -0.259,1.885 -0.776,2.733 -0.583,0.972 -1.456,1.645 -2.634,2.028 -0.576,0.174 -1.631,0.266 -3.158,0.266l-7.253 0z"/>
   <path class="fil2" d="M126.514 18.911l0 5.252c0.014,1.186 0.266,1.995 0.758,2.429 0.485,0.382 1.262,0.57 2.342,0.557l1.482 0 0 4.936 -2.207 0c-5.525,0.213 -8.217,-2.21 -8.081,-7.274l0 -16.626 5.706 0 0 5.791 4.582 0 0 4.935 -4.582 0z"/>
   <path class="fil2" d="M114.86 23.943l3.567 3.129c-1.179,1.709 -2.324,2.94 -3.436,3.698 -1.805,1.237 -3.818,1.859 -6.031,1.859 -2.783,0 -5.124,-0.972 -7.021,-2.921 -1.805,-1.872 -2.711,-4.094 -2.711,-6.658 0,-2.002 0.563,-3.835 1.689,-5.506 0.977,-1.463 2.271,-2.564 3.888,-3.296 1.302,-0.596 2.712,-0.894 4.232,-0.894 3.125,0 5.585,1.186 7.383,3.549 0.441,0.59 0.952,1.549 1.534,2.863l-9.893 5.919 -1.993 -3.471 5.306 -3.303c-0.706,-0.622 -1.528,-0.933 -2.46,-0.933 -1.164,0 -2.128,0.434 -2.899,1.309 -0.795,0.886 -1.196,2.001 -1.196,3.341 0,1.4 0.407,2.566 1.229,3.485 0.873,0.978 1.993,1.464 3.358,1.464 1.501,0 2.803,-0.505 3.902,-1.522 0.608,-0.57 1.125,-1.276 1.552,-2.112z"/>
   <path class="fil2" d="M77.83 39.778l0 -16.314c0,-2.831 0.822,-5.149 2.466,-6.943 1.921,-2.111 4.327,-3.167 7.214,-3.167 2.892,0 5.28,0.991 7.15,2.979 1.772,1.885 2.659,4.12 2.659,6.717 0,1.25 -0.239,2.473 -0.711,3.658 -0.472,1.193 -1.139,2.228 -1.999,3.11 -0.849,0.886 -1.846,1.58 -2.99,2.072 -1.146,0.492 -2.317,0.739 -3.521,0.739 -1.061,0 -2.193,-0.344 -3.397,-1.037l0 -5.77c1.022,0.731 1.96,1.094 2.809,1.094 1.087,0 1.993,-0.363 2.711,-1.082 0.744,-0.751 1.12,-1.696 1.12,-2.856 0,-0.997 -0.299,-1.858 -0.893,-2.584 -0.739,-0.887 -1.708,-1.328 -2.912,-1.328 -1.476,0 -2.582,0.635 -3.332,1.898 -0.448,0.745 -0.667,1.885 -0.667,3.413l0 15.401 -5.707 0z"/>
   <path class="fil2" d="M96.184 53.528c-0.048,0.422 -0.192,0.796 -0.432,1.123 -0.241,0.325 -0.553,0.576 -0.94,0.751 -0.385,0.175 -0.802,0.258 -1.25,0.249 -0.402,-0.009 -0.753,-0.102 -1.053,-0.28 -0.298,-0.177 -0.535,-0.435 -0.706,-0.772 -0.173,-0.339 -0.27,-0.726 -0.293,-1.167 -0.018,-0.343 0.017,-0.772 0.107,-1.285 0.093,-0.513 0.254,-0.968 0.487,-1.366 0.234,-0.398 0.511,-0.712 0.833,-0.946 0.453,-0.323 0.971,-0.481 1.551,-0.47 0.633,0.012 1.134,0.206 1.505,0.588 0.371,0.379 0.575,0.907 0.61,1.582l-1.224 -0.004c0,-0.387 -0.077,-0.67 -0.232,-0.849 -0.153,-0.179 -0.392,-0.274 -0.715,-0.285 -0.421,-0.014 -0.765,0.136 -1.036,0.451 -0.27,0.313 -0.451,0.77 -0.542,1.373 -0.091,0.585 -0.129,1.024 -0.118,1.315 0.014,0.369 0.097,0.642 0.248,0.817 0.15,0.174 0.362,0.266 0.633,0.274 0.375,0.015 0.675,-0.073 0.9,-0.266 0.225,-0.192 0.374,-0.466 0.447,-0.825l1.22 -0.008z"/>
   <polygon class="fil2" points="99.178,54.551 101.772,54.551 101.594,55.565 97.774,55.565 98.835,49.451 100.064,49.451 "/>
   <path class="fil2" d="M104.712 55.565l-1.23 0 1.057 -6.114 1.23 0 -1.057 6.114zm0.905 -7.764l1.371 0 -1.333 1.298 -1.044 0 1.006 -1.298z"/>
   <polygon class="fil2" points="111.777,55.565 110.586,55.565 108.886,51.487 108.177,55.565 106.949,55.565 108.01,49.451 109.197,49.451 110.901,53.537 111.61,49.451 112.833,49.451 "/>
   <polygon class="fil2" points="115.259,55.565 114.029,55.565 115.085,49.451 116.315,49.451 "/>
   <path class="fil2" d="M122.473 53.528c-0.047,0.422 -0.191,0.796 -0.432,1.123 -0.241,0.325 -0.552,0.576 -0.939,0.751 -0.385,0.175 -0.801,0.258 -1.251,0.249 -0.402,-0.009 -0.753,-0.102 -1.051,-0.28 -0.3,-0.177 -0.536,-0.435 -0.708,-0.772 -0.172,-0.339 -0.269,-0.726 -0.292,-1.167 -0.018,-0.343 0.017,-0.772 0.108,-1.285 0.091,-0.513 0.253,-0.968 0.486,-1.366 0.234,-0.398 0.512,-0.712 0.834,-0.946 0.452,-0.323 0.969,-0.481 1.551,-0.47 0.632,0.012 1.134,0.206 1.505,0.588 0.37,0.379 0.573,0.907 0.609,1.582l-1.224 -0.004c0,-0.387 -0.077,-0.67 -0.233,-0.849 -0.152,-0.179 -0.392,-0.274 -0.715,-0.285 -0.419,-0.014 -0.765,0.136 -1.036,0.451 -0.269,0.313 -0.45,0.77 -0.542,1.373 -0.091,0.585 -0.129,1.024 -0.118,1.315 0.014,0.369 0.097,0.642 0.249,0.817 0.15,0.174 0.362,0.266 0.632,0.274 0.375,0.015 0.675,-0.073 0.901,-0.266 0.225,-0.192 0.374,-0.466 0.447,-0.825l1.219 -0.008z"/>
   <path class="fil2" d="M127.653 54.309l-2.131 0 -0.628 1.256 -1.356 0 3.265 -6.114 1.137 0 1.162 6.114 -1.255 0 -0.194 -1.256zm-1.625 -1.023l1.472 0 -0.344 -2.277 -1.128 2.277z"/>
   <polygon class="fil2" points="135.358,54.036 137.413,49.451 138.823,49.451 135.807,55.565 134.523,55.565 133.423,49.451 134.746,49.451 "/>
   <polygon class="fil2" points="143.5,52.908 141.16,52.908 140.874,54.551 143.627,54.551 143.451,55.565 139.47,55.565 140.531,49.451 144.503,49.451 144.322,50.474 141.583,50.474 141.327,51.928 143.677,51.928 "/>
   <polygon class="fil2" points="150.702,50.474 148.889,50.474 148.009,55.565 146.781,55.565 147.662,50.474 145.87,50.474 146.05,49.451 150.883,49.451 "/>
   <polygon class="fil2" points="155.656,52.908 153.316,52.908 153.03,54.551 155.783,54.551 155.607,55.565 151.626,55.565 152.687,49.451 156.659,49.451 156.478,50.474 153.739,50.474 153.483,51.928 155.832,51.928 "/>
   <path class="fil2" d="M160.045 53.33l-1 0 -0.389 2.235 -1.228 0 1.06 -6.114 2.022 0.005c0.678,0 1.197,0.159 1.562,0.479 0.365,0.319 0.527,0.763 0.485,1.331 -0.059,0.841 -0.507,1.425 -1.343,1.752l0.861 2.48 0 0.067 -1.309 0 -0.721 -2.235zm-0.823 -1.024l0.914 0.009c0.325,-0.006 0.594,-0.094 0.804,-0.263 0.211,-0.169 0.338,-0.398 0.379,-0.689 0.04,-0.27 -0.004,-0.483 -0.13,-0.638 -0.124,-0.153 -0.325,-0.235 -0.598,-0.246l-1.05 -0.005 -0.319 1.832z"/>
   <polygon class="fil2" points="165.171,55.565 163.941,55.565 164.997,49.451 166.227,49.451 "/>
   <polygon class="fil2" points="172.235,55.565 171.044,55.565 169.344,51.487 168.634,55.565 167.407,55.565 168.468,49.451 169.654,49.451 171.358,53.537 172.067,49.451 173.291,49.451 "/>
   <path class="fil2" d="M178.072 54.309l-2.131 0 -0.629 1.256 -1.355 0 3.265 -6.114 1.137 0 1.161 6.114 -1.254 0 -0.194 -1.256zm-1.626 -1.023l1.471 0 -0.343 -2.277 -1.128 2.277z"/>
   <path class="fil2" d="M183.823 53.33l-0.999 0 -0.389 2.235 -1.229 0 1.061 -6.114 2.022 0.005c0.677,0 1.197,0.159 1.562,0.479 0.365,0.319 0.526,0.763 0.485,1.331 -0.059,0.841 -0.506,1.425 -1.343,1.752l0.86 2.48 0 0.067 -1.308 0 -0.722 -2.235zm-0.823 -1.024l0.915 0.009c0.325,-0.006 0.593,-0.094 0.804,-0.263 0.211,-0.169 0.337,-0.398 0.379,-0.689 0.04,-0.27 -0.005,-0.483 -0.13,-0.638 -0.125,-0.153 -0.325,-0.235 -0.599,-0.246l-1.049 -0.005 -0.32 1.832z"/>
   <polygon class="fil2" points="188.949,55.565 187.72,55.565 188.776,49.451 190.006,49.451 "/>
   <path class="fil2" d="M194.849 54.309l-2.13 0 -0.629 1.256 -1.355 0 3.264 -6.114 1.137 0 1.161 6.114 -1.254 0 -0.194 -1.256zm-1.626 -1.023l1.471 0 -0.343 -2.277 -1.128 2.277z"/>
   <path class="fil2" d="M94.74 39.778l0 1.122 -2.241 0 0 -1.122 2.241 0zm100.798 0l0 1.122 -2.239 0 0 -1.122 2.239 0zm-5.6 0l0 1.122 -2.241 0 0 -1.122 2.241 0zm-5.6 0l0 1.122 -2.24 0 0 -1.122 2.24 0zm-5.601 0l0 1.122 -2.239 0 0 -1.122 2.239 0zm-5.599 0l0 1.122 -2.24 0 0 -1.122 2.24 0zm-5.6 0l0 1.122 -2.24 0 0 -1.122 2.24 0zm-5.6 0l0 1.122 -2.239 0 0 -1.122 2.239 0zm-5.599 0l0 1.122 -2.241 0 0 -1.122 2.241 0zm-5.601 0l0 1.122 -2.239 0 0 -1.122 2.239 0zm-5.6 0l0 1.122 -2.239 0 0 -1.122 2.239 0zm-5.599 0l0 1.122 -2.241 0 0 -1.122 2.241 0zm-5.6 0l0 1.122 -2.24 0 0 -1.122 2.24 0zm-5.601 0l0 1.122 -2.239 0 0 -1.122 2.239 0zm-5.599 0l0 1.122 -2.24 0 0 -1.122 2.24 0zm-5.6 0l0 1.122 -2.241 0 0 -1.122 2.241 0zm-5.6 0l0 1.122 -2.24 0 0 -1.122 2.24 0zm-5.6 0l0 1.122 -2.24 0 0 -1.122 2.24 0zm-5.6 0l0 1.122 -2.24 0 0 -1.122 2.24 0z"/>
  </g>
 </g>
</svg>
